# xmcd
#
# Track frame offsets:
#	150
#	16877
#	31572
#	46434
#	62842
#	84248
#	95327
#
# Disc length: 1509 seconds
#
# Revision: 0
# Processed by: cddbd v1.4PL0 Copyright (c) Steve Scherf et al.
# Submitted via: EasyCDDAExtractor 4.6.9.1
#
DISCID=4505e307
DTITLE=Jaime Babbitt
DYEAR=2002
DGENRE=Country
TTITLE0=Dear Annie
TTITLE1=Little Trouble
TTITLE2=Trixie
TTITLE3=Mouthful of Nothing
TTITLE4=Crazy for You
TTITLE5=Cool old World
TTITLE6=On the Wheel
EXTD=
EXTT0=
EXTT1=
EXTT2=
EXTT3=
EXTT4=
EXTT5=
EXTT6=
PLAYORDER=
